<svg version="1" xmlns="http://www.w3.org/2000/svg" width="933.333" height="933.333" viewBox="0 0 700.000000 700.000000"><path d="M329.9.4c-.2.2-4.2.6-8.9 1-12.9.9-25.2 2.6-43.5 6.1-22.1 4.3-55.9 15.8-79 27.1C107.9 78.4 41.3 157.5 13.5 254c-4.2 14.7-8.5 35-10 47.6-.4 3.3-.9 6.8-1.1 7.9C-.1 323 0 380.9 2.5 391c.2.8.6 4 1 7.1.3 3.1.8 6.7 1 8 .3 1.3.7 3.9 1 5.8.2 1.8.7 4.1.9 5 .3.9.8 3.1 1.1 4.9 1.2 7.1 7.6 30.3 11.3 41.2 5.4 15.7 9.1 24.8 15.8 38.7 54.2 112 163.5 187.1 286.9 197.1 11.9.9 47.6.9 59-.2C467 691 546.3 652.2 606 588.4c10.6-11.3 13.2-14.4 22-25.9 40.5-53.2 65.1-116.6 70.8-183 1.4-16.5.6-62.5-1.3-72-.2-1.1-.7-4-1-6.5-.3-2.5-.7-5.6-1-7-.3-1.4-.8-4.1-1.1-6-.8-5.5-5.4-26-6.9-31-4.1-13.8-8.1-25.7-12.2-36-34.6-88.1-106.8-160.7-194.8-195.7C457.1 16 431.4 8.6 412 5.6c-3-.5-11.3-1.9-12-2.1-.3-.1-4.1-.5-8.5-1-4.4-.4-8.9-1-10-1.2-2.9-.4-51.1-1.3-51.6-.9zm45.6 28c5 .4 10.1.9 11.5 1.1 1.4.3 4.8.7 7.5 1 8.7 1.1 21.6 3.6 33.8 6.6C491.6 52.7 550.6 88.9 593 138c3.6 4.1 6.8 7.7 7.1 8 .3.3 3.2 4.1 6.5 8.5 20.1 26.7 35.1 54.2 46.7 85.5 3.3 8.9 9 27.4 10.1 33 .3 1.4 1.4 6.8 2.5 12 2.1 9.9 4.5 26.2 5.7 39 1.3 13.8.6 53.7-1 62.6-.2 1-.7 4.4-1.1 7.4-6.5 52.7-29.6 108.1-63.3 152-15.9 20.6-37.9 43-56.2 57-2.5 1.9-5.1 4-5.8 4.7-2.6 2.5-27.9 19-36.7 23.9-35.1 19.6-74.9 32.9-113.5 37.9-2.5.3-5.6.8-7 1-1.4.2-6.1.7-10.4 1-4.4.3-8.2.6-8.5.7-4.2.4-4.1 1.1-4.1-25.1v-24.9l11.8-6.8c6.4-3.8 12.9-7.6 14.4-8.4 20.6-11.6 29.5-17 31.8-19.2 5.9-5.5 4.6-15.8-2.5-20.7-6-4.1-9.6-3-33.4 10.8-11.6 6.6-21.3 12.1-21.6 12.1-.3 0-.5-26.7-.5-59.3 0-56.9-.1-59.3-2-62.4-2.8-4.6-6.6-6.8-11.9-6.7-5.8.1-9.8 2.6-12.1 7.6-1.4 3.2-1.6 7.2-1.6 27.3.1 12.9-.1 23.5-.3 23.5-.2 0-9.2-5.1-20-11.4-24.3-14.1-24.8-14.3-29-13.9-7.5.7-12.7 6.6-12.5 14.4.2 7.3.5 7.5 43.9 32.4 9.4 5.4 17.2 10.2 17.5 10.6.5.7.6 117.7.1 120.2 0 .5-.4.6-.8.4-.5-.3-5.1-.8-10.3-1.2-8.3-.6-22-2.3-33-4.1-10.1-1.6-37.3-8.7-46-11.9-1.9-.7-7.3-2.8-12-4.5-50.9-19.1-99.7-54.6-134.9-98.5-9-11.2-26.1-35.5-26.1-37.1 0-.3-.8-1.8-1.8-3.2-2.7-3.9-10.7-19.3-15.3-29.5-15.3-34-24.8-71.5-27.6-108.7-1.2-16.8-.5-54.5 1.2-61 .2-.8.7-4 1-7 .7-6.6 1.9-13.3 4.7-26C51.7 203.7 97 134.9 161.5 88.4c11.7-8.5 13.3-9.5 26.5-17.2 17.8-10.4 30.8-16.5 50.1-23.7 10.6-4 28.8-9.7 34.9-10.9 1.4-.3 6.8-1.4 12-2.5 5.2-1.2 11.1-2.3 13-2.5 15.3-2.1 20.8-2.7 29.5-3.3 5.5-.3 10.1-.6 10.2-.8.6-.4 29.1.3 37.8.9z"/><path d="M339 80.7c-15.4 2.4-32.5 11-44.1 22.3-3.5 3.3-10.9 13.1-12.4 16.5-1.9 3.9-1.5 3.8-11 2.1-22.3-3.9-47.5 3.8-63.8 19.7-15.1 14.6-22.8 32.1-23.1 51.7-.1 10.5.7 19 1.9 21 .4.6-.9 1-3.2 1.1-2.1 0-4.7.2-5.8.4-1.1.2-4 .7-6.5 1-16.8 2.4-35 12.5-46.4 25.8-10.2 12-18.3 30.5-20.3 46.6-.9 7-.9 23.7.1 29.1 3.8 22.4 17.7 43.8 36.1 55.5 12.1 7.8 26 13.1 35 13.4 1.9.1 2 .8 2 10.9.1 15.7 3.8 26.7 12.9 38.9 12.8 17 30.4 26.2 51.3 26.8 12.7.4 21-1.3 31.9-6.6 11-5.4 14.6-9.2 15.2-16.3.4-5.2.3-5.5-3.6-9.4-5.8-5.8-11.7-6-20.3-.6-12.6 7.9-30.5 7.6-42.5-.7-16-11-21.6-28.7-15-48 2.2-6.5 2.4-8.1 1.5-11.5-2.2-8.1-6.8-10.4-19.9-10.2-13.7.1-22.1-2.2-32.6-9.1-13.1-8.6-21.4-20.9-25-37.2-.6-2.7-.6-18 0-21.9 3.6-23.1 17.3-40.3 38-47.4 5.6-1.9 20.8-2.4 32.7-1.1 7.7.9 11.8-.7 14.9-5.8 2.7-4.4 2.5-8.4-1-19.2-1.6-5.1-3.2-11.4-3.7-14.1-3.8-25 10.1-47.3 34-54.6 9.3-2.8 21.4-2.2 30.7 1.5 14.3 5.7 21 3 25.7-10.2 7.3-20.3 25.9-33.4 47.3-33.3 15 0 25.7 4.7 36.5 15.8 5 5.2 6.8 8.2 12.4 20.7 2.6 5.9 3.6 7 7.2 8.6 5 2.3 7.9 2 16.7-1.5 27.5-11 58.7 5.9 64.6 35.1 2 9.4 1 18-3.4 31.7-3.3 10.2-3.7 14.6-1.6 18.6 3.3 6.4 9.4 8.6 18.6 6.7 5.6-1.1 15.3-1.2 22.5-.2 24 3.5 41.8 23.1 45.1 49.7 2.1 16.6-.5 29.4-8.5 41.6-4.1 6.4-13.2 15.2-18.4 18-1.7.9-4.3 2.3-5.7 3-5.1 2.7-15.6 4.7-24 4.6-11.2-.1-15.4 1.1-18.4 5.1-3.5 4.7-3.8 9.1-.9 17.1 5.5 15.3 2.8 29.4-7.8 41-12.9 14.1-34 17.1-49.8 7.1-2-1.2-4.7-2.6-6.1-3-9.6-3.2-18.8 4.3-17.7 14.3.6 5.7 4.7 10 14.2 14.7 19.1 9.4 41 9.6 59.8.6 22.8-10.9 38.4-36.8 37.6-62.2-.1-3.8 0-7.1.2-7.4.3-.2 2.3-.7 4.5-1 29.9-4.6 56-27.8 65.4-58.2 2.6-8.6 3.1-11.9 3.4-23.6.8-28.5-10.4-54.9-30.3-71.3-10.5-8.7-24.7-15.1-37.1-16.9-2.5-.3-5.4-.8-6.5-1-1.1-.2-3.6-.4-5.6-.4l-3.7-.1 1.3-6c1.4-6.9 1.2-22.4-.4-29.2-5.2-22.2-18.8-40.1-38-50.2-17.2-9-32.6-11.1-53.2-7.1-3.4.6-3.6.5-6.2-4.2-8.8-16-26.7-29.8-45.9-35.4-6.9-2-24.9-3.2-31.8-2.2z"/><path d="M293.7 170.6c-.1.1-2.4.4-5.2.7-6.9.7-11.7 2.3-17.8 5.9-6.9 4-11.2 8.1-15.8 15.1-5 7.7-7.2 15.3-7.3 25.2-.1 20.5 10.7 34.1 23 29 7.5-3.1 9.7-10.5 6-20.8-1.9-5.6-2.2-7.5-1.5-11.4 1.7-8.7 7.9-14.7 16.7-15.9 7.1-1 11.9 1.1 18.6 8.1 6.4 6.6 9.1 8 14.1 7.6 9.5-.9 14.4-10.4 10.1-19.7-4.3-9.1-16.1-18.8-26.1-21.5-4.1-1.1-14.3-2.7-14.8-2.3zM436 244c-5.4 1.1-8.5 2.6-12.3 6-12.3 10.7-1.3 28.3 13.9 22.5 5.3-2 7.9-.9 5.2 2.2-4.7 5.4-5.8 12.3-2.8 17.1 3 4.8 7.7 7.4 12.7 6.9 5.4-.6 9.7-3.8 14-10.4 4.4-6.9 5.6-17 2.9-25.1-4.4-13.3-19.6-22-33.6-19.2z"/></svg>